<svg xmlns="http://www.w3.org/2000/svg" viewBox="0 0 600 600" role="img" aria-label="Hearts beeswax wrap">
  <defs>
    <pattern id="h-hearts" width="70" height="70" patternUnits="userSpaceOnUse">
      <path d="M35 25 C 25 15, 10 25, 20 38 L 35 52 L 50 38 C 60 25, 45 15, 35 25 Z" fill="#FF6B5B"/>
      <path d="M10 60 C 5 55, -2 60, 3 66 L 10 72 L 17 66 C 22 60, 15 55, 10 60 Z" fill="#FCD66B"/>
      <path d="M60 8 C 56 4, 50 8, 53 13 L 60 19 L 67 13 C 70 8, 64 4, 60 8 Z" fill="#FCD66B"/>
    </pattern>
  </defs>
  <rect width="600" height="600" fill="#FFFAEB"/>
  <g transform="translate(150,165) rotate(-9)">
    <rect width="300" height="300" rx="14" fill="#FCD66B"/>
    <rect width="300" height="300" rx="14" fill="url(#h-hearts)" opacity="0.95"/>
    <rect width="300" height="300" rx="14" fill="none" stroke="#1A1A1A" stroke-width="3" stroke-dasharray="6 8"/>
  </g>
  <g transform="translate(225,230) rotate(7)">
    <rect width="270" height="270" rx="14" fill="#FF6B5B"/>
    <rect width="270" height="270" rx="14" fill="url(#h-hearts)" opacity="0.45"/>
    <rect width="270" height="270" rx="14" fill="none" stroke="#FFFAEB" stroke-width="3" stroke-dasharray="6 8"/>
  </g>
</svg>
